<?xml version="1.0" encoding="iso-8859-1"?>
<!-- Generator: Adobe Illustrator 19.0.0, SVG Export Plug-In . SVG Version: 6.00 Build 0)  -->
<svg version="1.1" id="Layer_1" xmlns="http://www.w3.org/2000/svg" xmlns:xlink="http://www.w3.org/1999/xlink" x="0px" y="0px"
	 viewBox="0 0 512 512" style="enable-background:new 0 0 512 512;" xml:space="preserve">
<path style="fill:#D3E8F1;" d="M289.908,333.629c-0.034,13.082,10.562,23.705,23.645,23.705h107.648h28.754V229.01H290.18
	L289.908,333.629z"/>
<g>
	<path style="fill:#8D93A4;" d="M376.443,334.9h-33.082c-5.342,0-9.674-4.33-9.674-9.674s4.331-9.674,9.674-9.674h33.082
		c5.342,0,9.674,4.33,9.674,9.674S381.785,334.9,376.443,334.9z"/>
	<path style="fill:#8D93A4;" d="M430.563,281.498H289.847v19.347h140.716c5.342,0,9.673-4.33,9.673-9.673
		S435.906,281.498,430.563,281.498z"/>
</g>
<g>
	<path style="fill:#CA98B3;" d="M69.916,470.441H51.595c-7.838,0-14.192-6.354-14.192-14.192V245.44h46.704V456.25
		C84.108,464.088,77.754,470.441,69.916,470.441z"/>
	<path style="fill:#CA98B3;" d="M473.306,427.64v28.609c0,7.838-6.354,14.192-14.192,14.192h-18.322
		c-7.838,0-14.192-6.354-14.192-14.192V245.44h46.704v130.613"/>
</g>
<g>
	<rect x="37.238" y="245.256" style="fill:#684C5F;" width="46.575" height="29.262"/>
	<rect x="426.718" y="245.256" style="fill:#684C5F;" width="46.575" height="29.262"/>
</g>
<path style="fill:#8D93A4;" d="M174.147,150.618h38.488c8.962,0,16.226,7.264,16.226,16.226v21.248h-61.469l-18.816-29.898
	L174.147,150.618z"/>
<path style="fill:#D3E8F1;" d="M47.253,183.3V94.902c0-9.555,7.747-17.301,17.301-17.301h99.922c9.555,0,17.301,7.747,17.301,17.301
	v95.123l-71.798,16.898L47.253,183.3z"/>
<circle style="fill:#8D93A4;" cx="116.134" cy="136.177" r="14.771"/>
<path style="fill:#FFDFA1;" d="M340.303,98.31h-25.436c-8.41,0-15.227,6.818-15.227,15.227v72.479h55.891v-72.479
	C355.53,105.128,348.712,98.31,340.303,98.31z"/>
<path style="fill:#6BE8C7;" d="M436.607,41.559h-25.436c-8.409,0-15.227,6.818-15.227,15.227v129.23h55.891V56.786
	C451.835,48.377,445.018,41.559,436.607,41.559z"/>
<path style="fill:#826075;" d="M501.037,253.168H9.674c-5.342,0-9.674-4.33-9.674-9.674v-52.54c0-5.344,4.331-9.674,9.674-9.674
	h491.363c5.342,0,9.674,4.33,9.674,9.674v52.54C510.71,248.838,506.379,253.168,501.037,253.168z"/>
<path d="M512,243.494v-52.54c0-5.344-4.331-9.674-9.674-9.674h-39.527V41.56c0-5.344-4.331-9.674-9.673-9.674h-55.892
	c-5.342,0-9.674,4.33-9.674,9.674v139.72h-21.066V98.311c0-5.344-4.331-9.674-9.674-9.674h-55.891c-5.342,0-9.674,4.33-9.674,9.674
	v82.969h-51.431v-30.662c0-5.344-4.331-9.674-9.674-9.674h-37.409V74.707c0-5.344-4.331-9.674-9.674-9.674H48.543
	c-5.342,0-9.674,4.33-9.674,9.674v105.698c0,0.295,0.018,0.587,0.044,0.876h-27.95c-5.342,0-9.674,4.33-9.674,9.674v52.54
	c0,5.344,4.331,9.674,9.674,9.674h18.057V470.44c0,5.344,4.331,9.674,9.674,9.674h46.704c5.342,0,9.674-4.33,9.674-9.674V253.168
	h186.392v104.168c0,5.344,4.331,9.674,9.673,9.674h127.082V470.44c0,5.344,4.331,9.674,9.674,9.674h46.704
	c5.342,0,9.674-4.33,9.674-9.674v-42.801c0-5.344-4.331-9.674-9.674-9.674c-5.342,0-9.674,4.33-9.674,9.674v33.127h-27.357V255.114
	h27.357v120.94c0,5.344,4.331,9.674,9.674,9.674c5.342,0,9.674-4.33,9.674-9.674V253.169h18.057
	C507.669,253.168,512,248.838,512,243.494z M406.907,51.234h36.544v125.111h-36.544V51.234z M310.601,107.985h36.544v68.36h-36.544
	L310.601,107.985L310.601,107.985z M75.724,460.766H48.368V255.114h27.357V460.766z M220.478,160.29v20.989h-27.736V160.29H220.478z
	 M58.217,180.405V84.38h115.178v96.9H58.173C58.198,180.992,58.217,180.7,58.217,180.405z M300.81,347.662v-46.817h117.408v46.817
	H300.81z M418.218,281.498H300.81v-28.331h117.408V281.498z M492.653,233.821H20.637v-33.193h472.016V233.821z"/>
<path d="M377.733,315.553h-33.082c-5.342,0-9.674,4.33-9.674,9.674c0,5.344,4.331,9.673,9.674,9.673h33.082
	c5.342,0,9.674-4.33,9.674-9.674S383.075,315.553,377.733,315.553z"/>
<circle cx="117.424" cy="136.177" r="14.771"/>
<g>
</g>
<g>
</g>
<g>
</g>
<g>
</g>
<g>
</g>
<g>
</g>
<g>
</g>
<g>
</g>
<g>
</g>
<g>
</g>
<g>
</g>
<g>
</g>
<g>
</g>
<g>
</g>
<g>
</g>
</svg>
